<svg width="30" height="29" viewBox="0 0 30 29" fill="none" xmlns="http://www.w3.org/2000/svg">
<g clip-path="url(#clip0_708_1399)">
<path d="M15.8809 0.40625H17.8449V3.05144C21.1549 3.05144 24.4645 3.05805 27.7742 3.04139C28.3331 3.0644 28.9481 3.02499 29.434 3.35881C29.7745 3.84817 29.7351 4.46979 29.7581 5.03189C29.7417 10.7719 29.7483 16.5088 29.7517 22.2454C29.7353 23.2078 29.8409 24.1897 29.6393 25.1388C29.507 25.8265 28.6804 25.8429 28.1281 25.8662C24.7026 25.876 21.2739 25.8596 17.8449 25.8662V28.842H15.7915C10.7524 27.926 5.70327 27.0798 0.657837 26.1968V3.05488C5.73342 2.17191 10.8087 1.30244 15.8809 0.40625Z" fill="#207245"/>
<path d="M17.8448 4.04297H28.7562V24.8738H17.8448V22.8899H20.49V20.5754H17.8448V19.2528H20.49V16.9383H17.8448V15.6157H20.49V13.3011H17.8448V11.9785H20.49V9.66399H17.8448V8.3414H20.49V6.02686H17.8448V4.04297Z" fill="white"/>
<path d="M21.8127 6.02637H26.4418V8.34091H21.8127V6.02637Z" fill="#207245"/>
<path d="M10.4516 9.12567C11.1989 9.07276 11.9496 9.02647 12.7 8.99023C11.8186 10.8005 10.9292 12.6069 10.0318 14.4094C10.9413 16.2611 11.87 18.0995 12.7826 19.9511C11.9866 19.9054 11.1909 19.8547 10.3956 19.799C9.83345 18.4201 9.14888 17.0877 8.74549 15.6461C8.29607 16.9885 7.65435 18.2547 7.1388 19.571C6.41455 19.5609 5.6903 19.5313 4.96631 19.5014C5.81594 17.8384 6.63595 16.1619 7.51204 14.5086C6.76821 12.8057 5.95138 11.136 5.18427 9.44309C5.9117 9.39997 6.63913 9.35712 7.36655 9.31744C7.85909 10.6104 8.39791 11.8865 8.80501 13.2125C9.2412 11.8074 9.89271 10.4848 10.4516 9.12567Z" fill="white"/>
<path d="M21.8127 9.66406H26.4418V11.9786H21.8127V9.66406ZM21.8127 13.3012H26.4418V15.6157H21.8127V13.3012ZM21.8127 16.9383H26.4418V19.2529H21.8127V16.9383ZM21.8127 20.5755H26.4418V22.89H21.8127V20.5755Z" fill="#207245"/>
</g>
<defs>
<clipPath id="clip0_708_1399">
<rect width="29.1111" height="28.3365" fill="white" transform="translate(0.65564 0.505859)"/>
</clipPath>
</defs>
</svg>
