<svg width="28" height="29" viewBox="0 0 28 29" fill="none" xmlns="http://www.w3.org/2000/svg">
<path d="M26.3333 20.1397C26.3031 20.0562 26.2479 19.984 26.1752 19.933C26.1026 19.8819 26.0159 19.8545 25.9271 19.8545H20.7417C20.6271 19.8545 20.5172 19.9 20.4361 19.9811C20.3551 20.0621 20.3096 20.172 20.3096 20.2866V24.6078C20.3096 24.6899 20.333 24.7703 20.3771 24.8396C20.4212 24.9089 20.484 24.9642 20.5584 24.999C20.6328 25.0338 20.7155 25.0467 20.797 25.0362C20.8784 25.0257 20.9552 24.9923 21.0182 24.9397L26.2037 20.6185C26.2718 20.5617 26.3208 20.4852 26.344 20.3996C26.3672 20.3139 26.3635 20.2232 26.3333 20.1397Z" fill="#BD2424"/>
<path d="M9.93864 11.2112V19.8536H20.7416C20.8561 19.8539 20.9658 19.8995 21.0468 19.9805C21.1278 20.0615 21.1734 20.1712 21.1737 20.2857V26.7675C21.1734 26.882 21.1278 26.9917 21.0468 27.0726C20.9658 27.1536 20.8561 27.1992 20.7416 27.1996H1.72838C1.61388 27.1992 1.50416 27.1536 1.42319 27.0726C1.34223 26.9917 1.2966 26.882 1.29626 26.7675V7.75424C1.2971 7.63968 1.34197 7.52983 1.42158 7.44744L7.47124 1.39778C7.55363 1.31817 7.66348 1.2733 7.77804 1.27246H20.7416C20.8561 1.27279 20.9658 1.31842 21.0468 1.39939C21.1278 1.48036 21.1734 1.59008 21.1737 1.70458V10.7791C21.1734 10.8936 21.1278 11.0033 21.0468 11.0843C20.9658 11.1652 20.8561 11.2109 20.7416 11.2112H9.93864Z" fill="#D6E0F0"/>
<path opacity="0.15" d="M21.1739 20.2864V22.447H7.77819C7.66368 22.4467 7.55397 22.4011 7.473 22.3201C7.39203 22.2391 7.3464 22.1294 7.34607 22.0149V12.5083C7.3464 12.3938 7.39203 12.2841 7.473 12.2031C7.55397 12.1221 7.66368 12.0765 7.77819 12.0762H9.50666V20.2864H21.1739Z" fill="black"/>
<path d="M25.9271 10.3477H9.50658C9.26793 10.3477 9.07446 10.5411 9.07446 10.7798V20.2864C9.07446 20.525 9.26793 20.7185 9.50658 20.7185H25.9271C26.1657 20.7185 26.3592 20.525 26.3592 20.2864V10.7798C26.3592 10.5411 26.1657 10.3477 25.9271 10.3477Z" fill="#FF0000"/>
<path d="M8.21016 1.27246V7.75424C8.20983 7.86874 8.1642 7.97846 8.08323 8.05943C8.00226 8.14039 7.89255 8.18603 7.77804 8.18636H1.29626V7.75424C1.2971 7.63968 1.34197 7.52983 1.42158 7.44744L7.47124 1.39778C7.55363 1.31817 7.66348 1.2733 7.77804 1.27246H8.21016Z" fill="#FF0000"/>
<path d="M14.6921 12.9404H12.0994C11.9847 12.9404 11.8748 12.986 11.7938 13.067C11.7128 13.148 11.6672 13.2579 11.6672 13.3725V17.6937C11.6672 17.8083 11.7128 17.9183 11.7938 17.9993C11.8748 18.0803 11.9847 18.1259 12.0994 18.1259C12.214 18.1259 12.3239 18.0803 12.4049 17.9993C12.4859 17.9183 12.5315 17.8083 12.5315 17.6937V16.3974H14.6921C14.8067 16.3974 14.9166 16.3519 14.9976 16.2708C15.0787 16.1898 15.1242 16.0799 15.1242 15.9653V13.3725C15.1242 13.2579 15.0787 13.148 14.9976 13.067C14.9166 12.986 14.8067 12.9404 14.6921 12.9404ZM14.2599 15.5331H12.5315V13.8047H14.2599V15.5331ZM17.7169 12.9404H16.4205C16.3059 12.9404 16.196 12.986 16.115 13.067C16.0339 13.148 15.9884 13.2579 15.9884 13.3725V17.6937C15.9884 17.8083 16.0339 17.9183 16.115 17.9993C16.196 18.0803 16.3059 18.1259 16.4205 18.1259H17.7169C18.1752 18.1254 18.6146 17.9432 18.9386 17.6191C19.2627 17.295 19.4449 16.8557 19.4454 16.3974V14.6689C19.4449 14.2106 19.2627 13.7712 18.9386 13.4472C18.6146 13.1231 18.1752 12.9409 17.7169 12.9404ZM18.5811 16.3974C18.5808 16.6265 18.4897 16.8461 18.3277 17.0081C18.1657 17.1702 17.946 17.2613 17.7169 17.2616H16.8527V13.8047H17.7169C17.946 13.805 18.1657 13.8961 18.3277 14.0581C18.4897 14.2201 18.5808 14.4398 18.5811 14.6689V16.3974ZM23.3344 12.9404H20.7417C20.6271 12.9404 20.5172 12.986 20.4362 13.067C20.3551 13.148 20.3096 13.2579 20.3096 13.3725V17.6937C20.3096 17.8083 20.3551 17.9183 20.4362 17.9993C20.5172 18.0803 20.6271 18.1259 20.7417 18.1259C20.8563 18.1259 20.9662 18.0803 21.0473 17.9993C21.1283 17.9183 21.1738 17.8083 21.1738 17.6937V15.9653H22.9023C23.0169 15.9653 23.1268 15.9197 23.2079 15.8387C23.2889 15.7577 23.3344 15.6477 23.3344 15.5331C23.3344 15.4185 23.2889 15.3086 23.2079 15.2276C23.1268 15.1465 23.0169 15.101 22.9023 15.101H21.1738V13.8047H23.3344C23.449 13.8047 23.559 13.7591 23.64 13.6781C23.721 13.5971 23.7666 13.4872 23.7666 13.3725C23.7666 13.2579 23.721 13.148 23.64 13.067C23.559 12.986 23.449 12.9404 23.3344 12.9404Z" fill="#F1F3F8"/>
</svg>
