<svg width="33" height="33" viewBox="0 0 33 33" fill="none" xmlns="http://www.w3.org/2000/svg">
<path d="M15.7244 11.5271L8.14115 19.1238C8.01535 19.2485 7.9155 19.397 7.84736 19.5605C7.77922 19.7241 7.74414 19.8995 7.74414 20.0767C7.74414 20.2539 7.77922 20.4293 7.84736 20.5929C7.9155 20.7564 8.01535 20.9049 8.14115 21.0296C8.39262 21.2796 8.73279 21.4199 9.08737 21.4199C9.44196 21.4199 9.78213 21.2796 10.0336 21.0296L16.7444 14.3859L23.3881 21.0296C23.6396 21.2796 23.9798 21.4199 24.3343 21.4199C24.6889 21.4199 25.0291 21.2796 25.2806 21.0296C25.4074 20.9053 25.5083 20.7571 25.5774 20.5935C25.6465 20.4299 25.6825 20.2543 25.6832 20.0767C25.6825 19.8991 25.6465 19.7235 25.5774 19.5599C25.5083 19.3963 25.4074 19.2481 25.2806 19.1238L17.6974 11.5271C17.5717 11.3909 17.4191 11.2822 17.2493 11.2078C17.0796 11.1334 16.8962 11.095 16.7109 11.095C16.5255 11.095 16.3422 11.1334 16.1724 11.2078C16.0026 11.2822 15.8501 11.3909 15.7244 11.5271Z" fill="black"/>
</svg>
